<?xml version="1.0" encoding="utf-8"?>
<!-- Generator: Adobe Illustrator 19.0.1, SVG Export Plug-In . SVG Version: 6.00 Build 0)  -->
<svg version="1.1" id="Слой_1" xmlns="http://www.w3.org/2000/svg" xmlns:xlink="http://www.w3.org/1999/xlink" x="0px" y="0px"
	 viewBox="0 0 33 33" style="enable-background:new 0 0 33 33;" xml:space="preserve">
<g>
	<circle style="opacity:0.2;fill:none;stroke:#FFFFFF;stroke-miterlimit:10;" cx="16.5" cy="16.5" r="16"/>
	<path style="fill:#FFFFFF;" d="M21.493,10.194H10.906c-0.912,0-1.651,0.737-1.651,1.647v10.594c0,0.91,0.739,1.647,1.651,1.647
		h10.586c0.912,0,1.651-0.737,1.651-1.647V11.842C23.144,10.932,22.405,10.194,21.493,10.194z M18.903,12.165
		c0-0.214,0.174-0.388,0.388-0.388h1.878c0.215,0,0.388,0.174,0.388,0.388v1.873c0,0.214-0.174,0.388-0.388,0.388h-1.878
		c-0.215,0-0.388-0.173-0.388-0.388V12.165z M16.216,14.49c1.475,0,2.671,1.193,2.671,2.665c0,1.472-1.196,2.665-2.671,2.665
		c-1.475,0-2.671-1.193-2.671-2.665C13.545,15.683,14.741,14.49,16.216,14.49z M21.59,22.08c0,0.214-0.174,0.388-0.388,0.388H11.23
		c-0.215,0-0.389-0.174-0.389-0.388v-6.04h1.3c-0.098,0.355-0.15,0.729-0.15,1.114c0,2.324,1.895,4.215,4.225,4.215
		c2.33,0,4.225-1.891,4.225-4.215c0-0.386-0.052-0.759-0.15-1.114h1.299V22.08z"/>
</g>
</svg>
