<?xml version="1.0" encoding="utf-8"?>
<!-- Generator: Adobe Illustrator 19.0.1, SVG Export Plug-In . SVG Version: 6.00 Build 0)  -->
<svg version="1.1" id="Слой_1" xmlns="http://www.w3.org/2000/svg" xmlns:xlink="http://www.w3.org/1999/xlink" x="0px" y="0px"
	 viewBox="0 0 24 24" style="enable-background:new 0 0 24 24;" xml:space="preserve">
<path style="fill:#FFFFFF;" d="M23,24H1c-0.553,0-1-0.447-1-1v-5.787c0-0.372,0.207-0.714,0.537-0.887l6.789-3.547
	C6.589,10.693,5.029,5.357,7.087,2.269C8.089,0.764,9.741,0,11.997,0c2.243,0,3.886,0.759,4.887,2.256
	c2.063,3.086,0.518,8.436-0.213,10.522l6.792,3.548C23.793,16.499,24,16.841,24,17.213V23C24,23.553,23.553,24,23,24z M2,22h20
	v-4.182l-7.038-3.677c-0.459-0.24-0.658-0.79-0.462-1.269c0.751-1.821,2.345-7.08,0.721-9.507C14.604,2.447,13.553,2,12.003,2
	c-1.572,0-2.634,0.45-3.251,1.376c-1.619,2.429-0.011,7.677,0.746,9.494c0.199,0.479,0,1.031-0.46,1.271L2,17.818V22z"/>
</svg>
