<?xml version="1.0" encoding="utf-8"?>
<!-- Generator: Adobe Illustrator 19.0.1, SVG Export Plug-In . SVG Version: 6.00 Build 0)  -->
<svg version="1.1" id="Слой_1" xmlns="http://www.w3.org/2000/svg" xmlns:xlink="http://www.w3.org/1999/xlink" x="0px" y="0px"
	 viewBox="0 0 158.375 26.444" style="enable-background:new 0 0 158.375 26.444;" xml:space="preserve">
<g>
	<path style="fill-rule:evenodd;clip-rule:evenodd;fill:#FFFFFF;" d="M148.373,24.969L148.373,24.969
		c0,0.384-0.114,0.708-0.342,0.972c-0.228,0.264-0.581,0.396-1.061,0.396s-0.834-0.132-1.061-0.396
		c-0.228-0.264-0.342-0.588-0.342-0.972V12.736c0-0.504-0.018-0.887-0.054-1.151c-0.036-0.264-0.084-0.48-0.144-0.648
		c-0.06-0.168-0.132-0.294-0.216-0.378c-0.084-0.084-0.162-0.198-0.234-0.342c-0.048-0.072-0.102-0.162-0.162-0.27
		c-0.06-0.108-0.09-0.258-0.09-0.45c0-0.36,0.126-0.659,0.378-0.899c0.252-0.24,0.57-0.36,0.953-0.36
		c0.336,0,0.624,0.096,0.864,0.288c0.24,0.192,0.456,0.444,0.648,0.756c0.792-0.552,1.631-0.959,2.518-1.223
		c0.888-0.264,1.763-0.396,2.626-0.396c1.919,0,3.352,0.623,4.3,1.871s1.421,2.89,1.421,4.929v10.505c0,0.384-0.12,0.708-0.36,0.972
		c-0.24,0.264-0.588,0.396-1.043,0.396c-0.456,0-0.803-0.132-1.043-0.396c-0.24-0.264-0.36-0.588-0.36-0.972V14.463
		c0-1.367-0.282-2.423-0.845-3.166c-0.564-0.744-1.385-1.115-2.464-1.115c-0.696,0-1.379,0.132-2.051,0.396
		c-0.672,0.264-1.319,0.636-1.943,1.115c0.072,0.408,0.108,0.755,0.108,1.043V24.969z M134.45,23.781L134.45,23.781
		c1.295,0,2.272-0.336,2.932-1.007c0.659-0.672,0.989-1.607,0.989-2.806v-6.044c0-1.175-0.33-2.099-0.989-2.77
		c-0.66-0.671-1.637-1.007-2.932-1.007c-1.295,0-2.273,0.336-2.932,1.007c-0.66,0.671-0.989,1.595-0.989,2.77v6.044
		c0,1.199,0.33,2.135,0.989,2.806C132.177,23.446,133.154,23.781,134.45,23.781z M134.45,26.372L134.45,26.372
		c-1.103,0-2.075-0.162-2.914-0.486c-0.839-0.324-1.541-0.774-2.105-1.349c-0.564-0.576-0.99-1.253-1.277-2.033
		c-0.288-0.78-0.432-1.625-0.432-2.537V13.96c0-0.888,0.144-1.721,0.432-2.501c0.288-0.779,0.714-1.457,1.277-2.033
		c0.564-0.576,1.265-1.031,2.105-1.367c0.839-0.336,1.811-0.504,2.914-0.504c1.103,0,2.075,0.168,2.914,0.504
		c0.839,0.336,1.541,0.791,2.105,1.367c0.564,0.576,0.99,1.253,1.277,2.033c0.288,0.78,0.432,1.613,0.432,2.501v6.008
		c0,0.912-0.144,1.757-0.432,2.537c-0.288,0.779-0.713,1.457-1.277,2.033c-0.563,0.576-1.265,1.025-2.105,1.349
		C136.524,26.21,135.553,26.372,134.45,26.372z M113.402,12.772L113.402,12.772c0-1.559,0.492-2.812,1.475-3.76
		c0.984-0.947,2.435-1.421,4.353-1.421c0.456,0,0.966,0.036,1.529,0.108c0.564,0.072,1.085,0.186,1.565,0.342
		c0.48,0.156,0.882,0.36,1.205,0.612c0.323,0.252,0.486,0.57,0.486,0.953c0,0.336-0.12,0.636-0.36,0.899
		c-0.24,0.264-0.552,0.396-0.936,0.396c-0.192,0-0.408-0.06-0.648-0.18c-0.384-0.192-0.774-0.348-1.169-0.468
		c-0.396-0.12-0.917-0.18-1.565-0.18c-2.134,0-3.202,0.84-3.202,2.518c0,0.552,0.126,0.995,0.378,1.331
		c0.252,0.336,0.69,0.66,1.313,0.972c0.624,0.312,1.319,0.588,2.087,0.827c0.767,0.24,1.493,0.57,2.176,0.989
		c0.684,0.42,1.26,0.965,1.727,1.637c0.468,0.671,0.701,1.595,0.701,2.77c0,1.631-0.504,2.914-1.511,3.849
		c-1.007,0.935-2.518,1.403-4.533,1.403c-0.456,0-0.989-0.03-1.601-0.09c-0.611-0.06-1.187-0.168-1.727-0.324
		c-0.54-0.156-1.001-0.372-1.385-0.648c-0.384-0.276-0.576-0.618-0.576-1.025c0-0.312,0.114-0.606,0.342-0.882
		c0.228-0.276,0.558-0.414,0.99-0.414c0.12,0,0.198,0.006,0.234,0.018c0.036,0.012,0.078,0.03,0.126,0.054
		c0.504,0.192,1.05,0.378,1.637,0.558c0.588,0.18,1.241,0.27,1.961,0.27c1.007,0,1.811-0.21,2.41-0.63
		c0.6-0.42,0.899-1.097,0.899-2.033c0-0.648-0.132-1.133-0.396-1.457c-0.264-0.324-0.576-0.582-0.936-0.774
		c-0.576-0.312-1.265-0.588-2.068-0.828c-0.804-0.24-1.571-0.563-2.303-0.971c-0.731-0.408-1.361-0.947-1.889-1.619
		C113.666,14.907,113.402,13.972,113.402,12.772z M101.781,17.845L101.781,17.845c-0.744,0-1.343,0.078-1.799,0.234
		c-0.456,0.156-0.809,0.372-1.061,0.648c-0.252,0.276-0.426,0.593-0.522,0.953c-0.096,0.36-0.144,0.744-0.144,1.151v0.144
		c0,0.839,0.228,1.529,0.684,2.069s1.283,0.809,2.482,0.809c0.768,0,1.475-0.126,2.123-0.378c0.648-0.252,1.283-0.653,1.907-1.205
		v-3.886c-0.6-0.192-1.223-0.33-1.871-0.414C102.933,17.887,102.333,17.845,101.781,17.845z M105.451,13.923L105.451,13.923
		c0-2.566-1.283-3.849-3.849-3.849c-0.624,0-1.133,0.072-1.529,0.216c-0.395,0.144-0.797,0.324-1.205,0.54
		c-0.048,0.024-0.168,0.078-0.36,0.162c-0.192,0.084-0.384,0.126-0.576,0.126c-0.336,0-0.581-0.132-0.737-0.396
		c-0.156-0.264-0.246-0.528-0.27-0.791c-0.048-0.408,0.072-0.761,0.36-1.061c0.288-0.3,0.677-0.546,1.169-0.738
		c0.492-0.192,1.044-0.33,1.655-0.414c0.612-0.084,1.229-0.126,1.853-0.126c2.254,0,3.867,0.611,4.839,1.835
		c0.971,1.223,1.457,3.034,1.457,5.433v7.915c0,0.719,0.216,1.079,0.648,1.079c0.048,0,0.09-0.006,0.126-0.018
		c0.036-0.012,0.09-0.018,0.162-0.018c0.336,0,0.594,0.126,0.774,0.378c0.18,0.252,0.27,0.534,0.27,0.846
		c0,0.456-0.168,0.774-0.503,0.953c-0.336,0.18-0.708,0.27-1.115,0.27c-0.6,0-1.133-0.162-1.601-0.486
		c-0.468-0.324-0.834-0.761-1.097-1.313c-1.391,1.271-3.034,1.907-4.929,1.907c-1.871,0-3.256-0.498-4.155-1.493
		c-0.899-0.995-1.349-2.308-1.349-3.939v-0.144c0-3.55,2.111-5.325,6.332-5.325c1.271,0,2.482,0.168,3.634,0.504V13.923z
		 M89.981,13.456L89.981,13.456c0-1.175-0.282-2.021-0.846-2.537c-0.563-0.516-1.373-0.774-2.428-0.774
		c-1.175,0-2.087,0.294-2.734,0.882c-0.648,0.588-0.971,1.385-0.971,2.392v2.734c0.671,0.096,1.379,0.162,2.123,0.198
		c0.744,0.036,1.295,0.054,1.655,0.054c0.671,0,1.217-0.084,1.637-0.252c0.419-0.168,0.749-0.39,0.989-0.665
		c0.24-0.276,0.396-0.594,0.468-0.954C89.945,14.175,89.981,13.816,89.981,13.456z M86.923,23.889L86.923,23.889
		c0.767,0,1.427-0.096,1.979-0.288c0.551-0.192,1.14-0.432,1.763-0.72c0.048-0.024,0.114-0.048,0.198-0.072
		c0.084-0.024,0.186-0.036,0.305-0.036c0.36,0,0.66,0.126,0.9,0.378c0.24,0.252,0.36,0.546,0.36,0.882
		c0,0.432-0.21,0.798-0.63,1.097c-0.42,0.3-0.935,0.539-1.547,0.719c-0.612,0.18-1.253,0.312-1.925,0.396
		c-0.672,0.084-1.247,0.126-1.727,0.126c-1.007,0-1.913-0.15-2.716-0.45c-0.804-0.3-1.475-0.72-2.015-1.259
		c-0.54-0.54-0.954-1.175-1.241-1.907c-0.288-0.732-0.432-1.517-0.432-2.357v-6.728c0-0.863,0.144-1.667,0.432-2.41
		c0.288-0.744,0.708-1.385,1.26-1.925c0.551-0.54,1.235-0.965,2.051-1.277c0.815-0.312,1.763-0.468,2.842-0.468
		c2.015,0,3.514,0.528,4.497,1.583c0.983,1.055,1.475,2.482,1.475,4.281c0,1.655-0.474,2.956-1.421,3.904
		c-0.947,0.947-2.5,1.421-4.659,1.421c-0.552,0-1.145-0.024-1.781-0.072c-0.636-0.048-1.265-0.132-1.889-0.252v2.123
		c0,1.007,0.33,1.811,0.989,2.41C84.65,23.59,85.627,23.889,86.923,23.889z M74.007,19.213L74.007,19.213
		c0-0.576-0.066-1.067-0.198-1.475c-0.132-0.408-0.294-0.756-0.486-1.043c-0.192-0.288-0.414-0.516-0.666-0.684
		c-0.252-0.168-0.486-0.312-0.701-0.432c-0.576-0.288-1.205-0.546-1.889-0.774c-0.684-0.228-1.373-0.474-2.069-0.737
		c-0.695-0.264-1.367-0.558-2.015-0.882c-0.648-0.324-1.229-0.744-1.745-1.259c-0.516-0.516-0.924-1.139-1.223-1.871
		c-0.3-0.731-0.45-1.625-0.45-2.68c0-2.183,0.648-3.898,1.943-5.145c1.295-1.247,3.07-1.871,5.325-1.871
		c0.456,0,1.032,0.036,1.727,0.108c0.695,0.072,1.373,0.198,2.033,0.378c0.66,0.18,1.223,0.426,1.691,0.738
		c0.468,0.312,0.701,0.719,0.701,1.223c0,0.36-0.126,0.678-0.378,0.953c-0.252,0.276-0.606,0.414-1.061,0.414
		c-0.288,0-0.564-0.054-0.827-0.162c-0.264-0.108-0.57-0.222-0.918-0.342c-0.348-0.12-0.744-0.234-1.187-0.342
		c-0.444-0.108-0.965-0.162-1.565-0.162c-0.576,0-1.133,0.066-1.673,0.198c-0.54,0.132-1.02,0.348-1.439,0.648
		c-0.42,0.3-0.756,0.708-1.007,1.223c-0.252,0.516-0.378,1.169-0.378,1.961c0,0.6,0.072,1.103,0.216,1.511
		c0.144,0.408,0.318,0.75,0.522,1.025c0.204,0.276,0.426,0.498,0.666,0.666c0.24,0.168,0.468,0.3,0.684,0.396
		c0.575,0.288,1.205,0.551,1.889,0.791c0.684,0.24,1.373,0.486,2.069,0.737c0.696,0.252,1.373,0.54,2.033,0.864
		c0.66,0.324,1.241,0.744,1.745,1.259c0.504,0.516,0.905,1.133,1.205,1.853c0.3,0.72,0.45,1.607,0.45,2.663
		c0,1.199-0.198,2.26-0.594,3.184c-0.396,0.923-0.947,1.703-1.655,2.338c-0.708,0.636-1.541,1.121-2.5,1.457
		c-0.959,0.336-2.003,0.504-3.13,0.504c-0.576,0-1.247-0.048-2.015-0.144c-0.768-0.096-1.493-0.252-2.177-0.468
		c-0.684-0.216-1.259-0.492-1.727-0.827c-0.468-0.336-0.701-0.744-0.701-1.223c0-0.36,0.126-0.684,0.378-0.971
		c0.252-0.288,0.558-0.432,0.917-0.432c0.24,0,0.528,0.066,0.864,0.198c0.336,0.132,0.719,0.276,1.151,0.432
		c0.432,0.156,0.924,0.3,1.475,0.431c0.552,0.132,1.175,0.198,1.871,0.198c1.607,0,2.812-0.384,3.616-1.151
		C73.605,21.719,74.007,20.627,74.007,19.213z M50.729,14.823L50.729,14.823l6.512-6.764c0.096-0.12,0.222-0.204,0.378-0.252
		c0.156-0.048,0.318-0.072,0.486-0.072c0.384,0,0.702,0.126,0.953,0.378c0.252,0.252,0.378,0.558,0.378,0.917
		c0,0.384-0.12,0.696-0.36,0.935l-5.289,5.397l6.08,8.994c0.072,0.12,0.126,0.258,0.162,0.414c0.036,0.156,0.054,0.294,0.054,0.414
		c-0.024,0.36-0.162,0.648-0.414,0.864c-0.252,0.216-0.558,0.324-0.917,0.324c-0.48,0-0.864-0.228-1.151-0.684l-5.577-8.49
		l-1.295,1.331v6.44c0,0.408-0.132,0.744-0.396,1.007c-0.264,0.264-0.6,0.396-1.007,0.396c-0.408,0-0.744-0.132-1.007-0.396
		c-0.264-0.264-0.396-0.6-0.396-1.007V1.403c0-0.408,0.132-0.744,0.396-1.007C48.582,0.132,48.918,0,49.326,0
		c0.408,0,0.743,0.132,1.007,0.396c0.264,0.264,0.396,0.599,0.396,1.007V14.823z M38.712,24.969L38.712,24.969
		c0,0.408-0.132,0.744-0.396,1.007c-0.264,0.264-0.6,0.396-1.007,0.396s-0.744-0.132-1.007-0.396
		c-0.264-0.264-0.396-0.6-0.396-1.007v-12.16c0-0.6-0.042-1.085-0.126-1.457c-0.084-0.372-0.234-0.726-0.45-1.061
		c-0.072-0.12-0.132-0.228-0.18-0.324s-0.072-0.228-0.072-0.396c0-0.384,0.132-0.689,0.396-0.917
		c0.264-0.228,0.563-0.342,0.899-0.342c0.288,0,0.551,0.09,0.791,0.27c0.24,0.18,0.456,0.413,0.648,0.701
		c0.768-0.48,1.607-0.858,2.518-1.133c0.912-0.276,1.715-0.414,2.411-0.414c0.719,0,1.211,0.132,1.475,0.396
		c0.264,0.264,0.396,0.588,0.396,0.972c0,0.456-0.138,0.815-0.414,1.079c-0.276,0.264-0.606,0.384-0.989,0.36
		c-0.744-0.024-1.469,0.018-2.176,0.126c-0.708,0.108-1.505,0.498-2.393,1.17c0.024,0.192,0.042,0.366,0.054,0.522
		c0.012,0.156,0.018,0.306,0.018,0.45V24.969z M23.71,17.845L23.71,17.845c-0.744,0-1.343,0.078-1.799,0.234
		c-0.456,0.156-0.809,0.372-1.061,0.648c-0.252,0.276-0.425,0.593-0.522,0.953c-0.096,0.36-0.144,0.744-0.144,1.151v0.144
		c0,0.839,0.228,1.529,0.684,2.069c0.456,0.54,1.283,0.809,2.482,0.809c0.767,0,1.475-0.126,2.123-0.378
		c0.648-0.252,1.283-0.653,1.907-1.205v-3.886c-0.6-0.192-1.223-0.33-1.871-0.414C24.861,17.887,24.261,17.845,23.71,17.845z
		 M27.379,13.923L27.379,13.923c0-2.566-1.283-3.849-3.85-3.849c-0.623,0-1.133,0.072-1.529,0.216
		c-0.396,0.144-0.797,0.324-1.205,0.54c-0.048,0.024-0.168,0.078-0.36,0.162c-0.192,0.084-0.384,0.126-0.576,0.126
		c-0.336,0-0.582-0.132-0.738-0.396c-0.156-0.264-0.246-0.528-0.27-0.791c-0.048-0.408,0.072-0.761,0.36-1.061
		c0.288-0.3,0.678-0.546,1.17-0.738c0.492-0.192,1.043-0.33,1.655-0.414c0.612-0.084,1.229-0.126,1.853-0.126
		c2.254,0,3.867,0.611,4.839,1.835c0.972,1.223,1.457,3.034,1.457,5.433v7.915c0,0.719,0.216,1.079,0.648,1.079
		c0.048,0,0.09-0.006,0.126-0.018c0.036-0.012,0.09-0.018,0.162-0.018c0.336,0,0.593,0.126,0.774,0.378
		c0.18,0.252,0.27,0.534,0.27,0.846c0,0.456-0.168,0.774-0.503,0.953c-0.336,0.18-0.708,0.27-1.115,0.27
		c-0.6,0-1.133-0.162-1.601-0.486c-0.468-0.324-0.834-0.761-1.097-1.313c-1.391,1.271-3.034,1.907-4.929,1.907
		c-1.871,0-3.256-0.498-4.155-1.493c-0.899-0.995-1.349-2.308-1.349-3.939v-0.144c0-3.55,2.111-5.325,6.332-5.325
		c1.271,0,2.482,0.168,3.634,0.504V13.923z M2.878,13.923L2.878,13.923h4.137c1.727,0,3.028-0.42,3.904-1.259
		c0.876-0.84,1.313-2.147,1.313-3.922c0-0.648-0.072-1.283-0.216-1.907c-0.144-0.624-0.408-1.181-0.791-1.673
		c-0.384-0.492-0.917-0.887-1.601-1.187c-0.684-0.3-1.553-0.45-2.608-0.45H2.878V13.923z M2.878,16.73v8.203
		c0,0.408-0.138,0.761-0.414,1.061c-0.276,0.3-0.618,0.45-1.025,0.45c-0.384,0-0.72-0.15-1.007-0.45C0.144,25.694,0,25.341,0,24.933
		V2.447c0-0.48,0.168-0.887,0.504-1.223C0.839,0.888,1.247,0.72,1.727,0.72h5.289c1.487,0,2.746,0.222,3.778,0.666
		c1.031,0.444,1.865,1.037,2.5,1.781c0.636,0.744,1.097,1.601,1.385,2.573c0.288,0.971,0.432,1.985,0.432,3.04
		c0,2.566-0.731,4.533-2.195,5.9c-1.463,1.367-3.43,2.051-5.9,2.051H2.878z"/>
	<path style="fill-rule:evenodd;clip-rule:evenodd;fill:#F5AB0F;" d="M106.17,4.414L106.17,4.414c0.175,0,0.318,0.142,0.318,0.318
		c0,0.175-0.142,0.318-0.318,0.318c-0.175,0-0.318-0.142-0.318-0.318C105.853,4.557,105.995,4.414,106.17,4.414 M101.559,7.094
		c-0.207,0-0.685-0.035-0.809,0.056c-0.135,0.099-0.14,0.291-0.043,0.397c0.03,0.032,0.12,0.083,0.177,0.083h2.408
		c0.214,0,0.26-0.157,0.26-0.312c0-0.098-0.044-0.06-0.052-0.156c0.166,0,0.576-0.159,0.742-0.228c0.153-0.063,1.102-0.5,1.145-0.5
		c0.099,0,0.085,0.003,0.182,0.095l0.118,0.125c0.074,0.083,0.153,0.155,0.233,0.235c0.041,0.041,0.074,0.07,0.112,0.113
		l0.114,0.128c0.179,0.203,0.404,0.4,0.401-0.037c-0.001-0.138-0.002-0.279-0.001-0.417c0.001-0.093,0.016-0.102,0.019-0.189
		c0.02-0.672-0.098-0.495,0.252-0.77c0.259-0.203,0.405-0.488,0.405-0.859c0-0.628-0.37-1.432-0.925-1.76
		c-0.213-0.125-0.405-0.175-0.672-0.228l-1.625-0.176c-1.597-0.15-3.733-0.591-5.281-1.023c-0.233-0.065-0.461-0.14-0.69-0.21
		c-0.23-0.07-0.456-0.147-0.68-0.221c-0.166-0.055-0.527-0.193-0.673-0.227c0.026,0.11,0.445,0.974,0.536,1.161l1.095,1.988
		c0.046,0.077,0.084,0.139,0.132,0.215l0.555,0.813c0.266,0.34,0.336,0.423,0.639,0.729c0.235,0.238,0.691,0.577,0.975,0.739
		c0.281,0.161,0.407,0.222,0.702,0.338c0.043,0.017,0.09,0.031,0.129,0.044C101.495,7.061,101.521,7.061,101.559,7.094z"/>
</g>
</svg>
