<?xml version="1.0" encoding="utf-8"?>
<!-- Generator: Adobe Illustrator 19.0.1, SVG Export Plug-In . SVG Version: 6.00 Build 0)  -->
<svg version="1.1" id="Слой_1" xmlns="http://www.w3.org/2000/svg" xmlns:xlink="http://www.w3.org/1999/xlink" x="0px" y="0px"
	 viewBox="0 0 24 24" style="enable-background:new 0 0 24 24;" xml:space="preserve">
<g>
	<path style="fill:#FFFFFF;" d="M13.565,2C18.216,2,22,5.784,22,10.435s-3.784,8.435-8.435,8.435S5.13,15.086,5.13,10.435
		S8.914,2,13.565,2 M13.565,0C7.802,0,3.13,4.672,3.13,10.435S7.802,20.87,13.565,20.87C19.328,20.87,24,16.198,24,10.435
		S19.328,0,13.565,0L13.565,0z"/>
	<path style="fill:#FFFFFF;" d="M1,24c-0.256,0-0.512-0.098-0.707-0.293c-0.391-0.391-0.391-1.023,0-1.414l5.848-5.848
		c0.391-0.391,1.023-0.391,1.414,0s0.391,1.023,0,1.414l-5.848,5.848C1.512,23.902,1.256,24,1,24z"/>
</g>
</svg>
