<?xml version="1.0" encoding="utf-8"?>
<!-- Generator: Adobe Illustrator 19.0.1, SVG Export Plug-In . SVG Version: 6.00 Build 0)  -->
<svg version="1.1" id="Слой_1" xmlns="http://www.w3.org/2000/svg" xmlns:xlink="http://www.w3.org/1999/xlink" x="0px" y="0px"
	 viewBox="0 0 26 26" style="enable-background:new 0 0 26 26;" xml:space="preserve">
<path style="fill:#FFFFFF;" d="M25,11.908h-3.84c-0.181-1.416-0.74-2.712-1.573-3.789l2.989-2.989c0.391-0.391,0.391-1.023,0-1.414
	s-1.023-0.391-1.414,0l-2.989,2.989c-1.077-0.834-2.373-1.393-3.789-1.574V1c0-0.552-0.447-1-1-1s-1,0.448-1,1v4.131
	c-1.416,0.181-2.712,0.74-3.789,1.574L5.605,3.715c-0.391-0.391-1.023-0.391-1.414,0s-0.391,1.023,0,1.414l2.989,2.989
	c-0.833,1.077-1.392,2.373-1.573,3.789H1c-0.553,0-1,0.448-1,1s0.447,1,1,1h4.607c0.181,1.416,0.74,2.712,1.574,3.789l-2.989,2.989
	c-0.391,0.391-0.391,1.023,0,1.414c0.195,0.195,0.451,0.293,0.707,0.293S5.41,22.295,5.605,22.1l2.989-2.989
	c1.077,0.833,2.373,1.392,3.789,1.573V25c0,0.552,0.447,1,1,1s1-0.448,1-1v-4.316c1.416-0.181,2.712-0.74,3.789-1.573l2.989,2.989
	c0.195,0.195,0.451,0.293,0.707,0.293s0.512-0.098,0.707-0.293c0.391-0.391,0.391-1.023,0-1.414l-2.989-2.989
	c0.833-1.077,1.392-2.373,1.574-3.789H25c0.553,0,1-0.448,1-1S25.553,11.908,25,11.908z M13.384,19.193
	c-3.466,0-6.286-2.819-6.286-6.286s2.82-6.287,6.286-6.287c3.467,0,6.286,2.82,6.286,6.287S16.851,19.193,13.384,19.193z"/>
</svg>
