<?xml version="1.0" encoding="utf-8"?>
<!-- Generator: Adobe Illustrator 19.0.1, SVG Export Plug-In . SVG Version: 6.00 Build 0)  -->
<svg version="1.1" id="Слой_1" xmlns="http://www.w3.org/2000/svg" xmlns:xlink="http://www.w3.org/1999/xlink" x="0px" y="0px"
	 viewBox="0 0 33.33 33.33" style="enable-background:new 0 0 33.33 33.33;" xml:space="preserve">
<g>
	<circle style="opacity:0.2;fill:#FCFCFC;stroke:#FFFFFF;stroke-miterlimit:10;" cx="17.499" cy="16.83" r="16"/>
	<g>
		<path style="fill-rule:evenodd;clip-rule:evenodd;fill:#FCFCFC;" d="M23.746,23.334c-0.031,0-0.062,0-0.093,0
			c-1.002-0.164-1.684-0.871-2.266-1.526c-0.329-0.37-0.833-1.207-1.434-1.11c-0.854,0.137-0.43,1.595-0.786,2.22
			c-0.288,0.505-1.514,0.413-2.359,0.324c-2.668-0.283-4.031-1.707-5.226-3.238c-1.277-1.635-2.272-3.347-3.191-5.226
			c-0.298-0.608-0.693-1.281-0.694-2.035c0.432-0.352,1.138-0.231,1.85-0.231c0.604,0,1.547-0.132,1.989,0.093
			c0.262,0.134,0.528,0.843,0.74,1.295c0.487,1.038,0.935,1.786,1.526,2.636c0.256,0.368,0.649,1.064,1.11,0.971
			c0.447-0.09,0.489-1.191,0.509-1.896c0.022-0.8-0.001-1.795-0.231-2.22c-0.217-0.401-0.615-0.409-1.018-0.648
			c0.335-0.673,1.253-0.74,2.359-0.74c0.93,0,2.227-0.103,2.59,0.509c0.369,0.623,0.116,1.747,0.093,2.59
			c-0.026,0.947-0.189,1.924,0.463,2.359c0.503-0.054,0.772-0.543,1.064-0.925c0.638-0.836,1.033-1.56,1.526-2.636
			c0.203-0.442,0.42-1.203,0.786-1.341c0.558-0.211,1.449-0.046,2.266-0.046c0.67,0,1.866-0.185,2.081,0.278
			c0.178,0.384-0.346,1.352-0.509,1.619c-0.619,1.016-1.227,1.662-1.896,2.544c-0.267,0.352-0.819,0.917-0.786,1.48
			c0.025,0.428,0.455,0.756,0.786,1.064c0.718,0.667,1.222,1.153,1.804,1.896c0.219,0.28,0.693,0.887,0.648,1.249
			C27.306,23.77,24.643,23.062,23.746,23.334z"/>
	</g>
</g>
</svg>
